inDegrees=no
num_controls=7
num_derivatives=13
num_iterations=101
num_multipliers=7
num_parameters=0
num_slacks=7
num_states=26
objective=0.444923
objective_accelerations=0.057632
objective_balance=0.003583
objective_effort=0.023134
objective_height=0.355062
objective_ligament=0.005512
solver_duration=1607.993553
status=Solve_Succeeded
success=true
DataType=double
version=3
OpenSimVersion=4.5
endheader
time	/jointset/ground_pelvis/pelvis_tilt/value	/jointset/ground_pelvis/pelvis_tx/value	/jointset/ground_pelvis/pelvis_ty/value	/jointset/hip_l/hip_flexion_l/value	/jointset/hip_l/hip_adduction_l/value	/jointset/hip_l/hip_rotation_l/value	/jointset/back/lumbar_extension/value	/jointset/patellofemoral_l/patellar_flexion_l/value	/jointset/knee_l/knee_flexion_l/value	/jointset/knee_l/knee_adduction_l/value	/jointset/knee_l/knee_rotation_l/value	/jointset/ankle_l/ankle_angle_l/value	/jointset/subtalar_l/subtalar_angle_l/value	/jointset/ground_pelvis/pelvis_tilt/speed	/jointset/ground_pelvis/pelvis_tx/speed	/jointset/ground_pelvis/pelvis_ty/speed	/jointset/hip_l/hip_flexion_l/speed	/jointset/hip_l/hip_adduction_l/speed	/jointset/hip_l/hip_rotation_l/speed	/jointset/back/lumbar_extension/speed	/jointset/patellofemoral_l/patellar_flexion_l/speed	/jointset/knee_l/knee_flexion_l/speed	/jointset/knee_l/knee_adduction_l/speed	/jointset/knee_l/knee_rotation_l/speed	/jointset/ankle_l/ankle_angle_l/speed	/jointset/subtalar_l/subtalar_angle_l/speed	/forceset/tau_hip_flexion_l	/forceset/tau_hip_adduction_l	/forceset/tau_hip_rotation_l	/forceset/tau_knee_flexion_l	/forceset/tau_ankle_angle_l	/forceset/tau_subtalar_angle_l	/forceset/tau_lumbar_extension	lambda_cid13_p0	lambda_cid13_p1	lambda_cid13_p2	lambda_cid13_p3	lambda_cid13_p4	lambda_cid13_p5	lambda_cid14_p0	/jointset/ground_pelvis/pelvis_tilt/accel	/jointset/ground_pelvis/pelvis_tx/accel	/jointset/ground_pelvis/pelvis_ty/accel	/jointset/hip_l/hip_flexion_l/accel	/jointset/hip_l/hip_adduction_l/accel	/jointset/hip_l/hip_rotation_l/accel	/jointset/back/lumbar_extension/accel	/jointset/patellofemoral_l/patellar_flexion_l/accel	/jointset/knee_l/knee_flexion_l/accel	/jointset/knee_l/knee_adduction_l/accel	/jointset/knee_l/knee_rotation_l/accel	/jointset/ankle_l/ankle_angle_l/accel	/jointset/subtalar_l/subtalar_angle_l/accel	gamma_cid13_p0	gamma_cid13_p1	gamma_cid13_p2	gamma_cid13_p3	gamma_cid13_p4	gamma_cid13_p5	gamma_cid14_p0
1	-0.5528899414177035	-0.08180577764242575	0.5714432413658069	1.845792835284576	-0.4690266673750605	0.02318546943574435	-0.2617315390452503	1.390988173983499	1.390988173983499	-0.09241904122051117	-0.1745132598767739	0.2198926055025465	-0.01244013984655468	-0.01510655716482202	0.01170571482855679	0.002076145459065317	-0.00269865442644241	-0.002495478184272652	0.004483365243574244	0.0001447014730147066	0.005462543351090234	0.005462543351090234	-0.004253340825324014	-0.0001151139575678379	0.02371915199179198	0.01058989533611129	-0.3368157628353496	0.01302541505755788	0.0002460219010408972	-0.3000773989492622	0.03283926793703428	0.03211446193793253	0.2867607359424432	-29.32211334485919	-9.643500918308147	2.149899207460411	8.533186062817848	-642.1128742654097	-48.29517315052682	-1.333169096019566	1.588356551752727	0.2315197604747953	1.951774113814609	-6.817309404167728	-0.08702513556278292	-2.386491155578799	-0.03650398256939387	-5.22655031585562	-5.226550315855619	-0.5209262772986175	-0.01622921988183012	-0.6670638715908962	-0.4636976406960712	5.164628009952954e-09	1.881585957236379e-08	-1.829943993861371e-08	1.329056659033871e-09	-1.557748871192318e-09	2.661187611495005e-08	2.45784624278831e-09
1.01	-0.5529625417786835	-0.08167719564713447	0.5715614518475216	1.845426253023566	-0.4690551130757985	0.02310948052085885	-0.2617308686448502	1.390781562717688	1.390781562717683	-0.09248480528362793	-0.174514280261954	0.2200965574742904	-0.01235623756506072	0.000588071737749875	0.01401364522716949	0.02156291897592476	-0.07061535853328137	-0.003208290600035088	-0.01969707721656713	-9.55772000524541e-06	-0.04678566788563066	-0.0467856678856322	-0.008909871440790073	-0.0001227183180317578	0.01705991018347788	0.006165022605196003	-0.3367299928230972	0.01311071982921787	0.0002266181776624097	-0.299947088822819	0.03267108935902373	0.0321317566372998	0.2867040502893878	-29.36474050904123	-9.647224228109655	2.15469158983956	8.474142460408615	-641.9990575378936	-48.30656715611129	-1.33735122054053	1.560252572979486	0.2308742533559441	1.946671380359929	-6.778486799758649	-0.06560277781824458	-2.436217235951349	-0.004727336718697006	-5.22408480854032	-5.224084808540312	-0.4395814671656583	0.001917864932321102	-0.6670544628103806	-0.4357159463751847	-6.336755260593895e-09	3.39305637015864e-09	2.232554246193314e-08	2.112988068749458e-09	-1.389572315002676e-08	7.996793623829887e-08	-1.197853316154557e-08
1.02	-0.5528781485479438	-0.08152544543309677	0.5718744385463526	1.844380576544323	-0.4690911255973412	0.02279120789242801	-0.2617317089261905	1.390052443683317	1.390052443683307	-0.09259744765559838	-0.1745163879089266	0.2202335770024794	-0.0123173507822931	0.01629216117912446	0.01633935857783827	0.04103138888231298	-0.1385174980727875	-0.004008842345208394	-0.04397337746549035	-0.0001574348750412566	-0.09903901036074522	-0.09903901036074507	-0.01362900259605844	-0.0003325663160559182	0.01033266328081519	0.001586795590843609	-0.3366442228108449	0.01319602460087787	0.0002072144542838675	-0.2998167786963758	0.0325029107810132	0.03214905133666709	0.2866473646363324	-29.41314539014337	-9.649688085180204	2.159000126139903	8.438263751603703	-641.9657680015058	-48.29422644173304	-1.351531303221108	1.590248659513265	0.2350763508860092	1.948113391720365	-6.814396490701162	-0.1045730014449579	-2.405662713335167	-0.03522757497260587	-5.227576563533709	-5.227576563533705	-0.5334463852590774	-0.05667794739387839	-0.6806648904606146	-0.4943684973834924	-1.076313980539183e-08	5.053571779199773e-09	6.952320733666298e-08	6.456614066720653e-09	-2.216740971061939e-08	1.258840005722628e-07	-2.103801217856641e-08
1.03	-0.5526368110604271	-0.08135035194882986	0.572381941653212	1.842656322334917	-0.4691350609540679	0.02223026005416362	-0.2617339279248967	1.388800792278593	1.388800792278589	-0.09275737529764463	-0.1745207074282757	0.2203029576992845	-0.0123243630390523	0.03196122267707498	0.0186818696379456	0.06045848155308227	-0.2062924495830544	-0.004739557418212474	-0.06817458008264972	-0.0002771398976914746	-0.1512898377968551	-0.1512898377968551	-0.01834397916643611	-0.0004730101000788246	0.003529592807174843	-0.002948290718381475	-0.3361571499641466	0.01336510659294577	0.0001594508207137862	-0.299656667962566	0.03252594530959161	0.03222068171999862	0.2863000643134127	-29.38090051506857	-9.697987806135735	2.17988733629875	8.319587168119945	-641.6261292148713	-48.35909744315182	-1.375931490551003	1.55311484156874	0.2342203817915312	1.93838843487913	-6.752913976025415	-0.05153155665535037	-2.421125776278165	0.001041779370509605	-5.223614852483579	-5.223614852483603	-0.4386508943985542	0.01605086839003275	-0.6822089367374342	-0.4269502870770058	-1.511733048564127e-08	6.888406765906774e-09	1.167879403999049e-07	1.083656347885775e-08	-3.039760353939321e-08	1.717241465818452e-07	-3.004262486510443e-08
1.04	-0.5522392069686042	-0.08115175697431821	0.573083391932804	1.840255544711441	-0.46918514562081	0.02142854484165323	-0.2617370672247733	1.387026676795742	1.387026676795744	-0.092964078225689	-0.1745246756930056	0.2203038915291688	-0.01237550047678075	0.04754548204033744	0.02103965662679025	0.0798208234288084	-0.2738221808867598	-0.005238704348305228	-0.09212685231468296	-0.000341495109070964	-0.2035318259863232	-0.2035318259863234	-0.02298405979567152	-0.0002623153922405495	-0.00335671010333311	-0.007238240603006161	-0.3356700771174453	0.01353418858501365	0.0001116871871436989	-0.2994965572287731	0.03254897983817003	0.03229231210333013	0.285952763990493	-29.35449059227219	-9.745025592189398	2.20029894735077	8.224442844346358	-641.3676335319002	-48.40082779184711	-1.410785497822381	1.573288232575658	0.2381315366334732	1.935163232711739	-6.76535244938885	-0.05825937286269275	-2.355876636309946	-0.02415761271846026	-5.225808714205361	-5.225808714205361	-0.5184671970306256	0.01354975097835743	-0.6973113778341358	-0.4453412124634129	-2.423666103116746e-08	-3.660764209332018e-09	1.595651010137768e-07	1.20350455185589e-08	-4.120284298097401e-08	2.21421392752836e-07	-4.278202883781595e-08
1.05	-0.5516862090637538	-0.08092947659673369	0.5739780653102721	1.837180874322694	-0.4692391294047735	0.0203885075679851	-0.2617404967599136	1.384730245279513	1.384730245279509	-0.09321687048275258	-0.1745250203565981	0.22023542482417	-0.01246846140408076	0.06303485180863808	0.02342181087522202	0.09909531272164894	-0.3410505325056683	-0.00552384698384563	-0.1158427322014627	-0.0003247314967824911	-0.2557476897364198	-0.2557476897364199	-0.02756573697104129	0.0002320066727878213	-0.01036245309666931	-0.01132524869179103	-0.3348942257140281	0.01376391915828702	2.789295740112139e-05	-0.2992140876391164	0.03266000774453708	0.03241594623688052	0.2854144430054225	-29.28131528340811	-9.829538355769023	2.234339735095949	8.061772893129154	-640.8295577792439	-48.49145710781925	-1.456503594515999	1.533868861246021	0.2390688046365058	1.920800348432289	-6.692378324939177	-0.00853111043877107	-2.373797498347586	0.0175454115333947	-5.21844581947559	-5.218445819475567	-0.4267393323083361	0.07321724387951456	-0.7060782136424817	-0.3860976921411128	-3.350490219748353e-08	-1.459693537088155e-08	2.022020249886059e-07	1.313410670287145e-08	-5.208855259795502e-08	2.712391733038708e-07	-5.563814503822036e-08
1.06	-0.5509788959587626	-0.08068321238952714	0.5750649252948408	1.833435760056399	-0.4692949424954	0.01911244072875204	-0.2617431682462648	1.381911861002971	1.381911861002961	-0.09351522378247352	-0.1745192530376168	0.220096126198526	-0.01260143582927964	0.078408522068489	0.02583642255119291	0.1182581448489715	-0.4079109563964704	-0.005604565680948377	-0.1393327654276664	-0.0001898853512582707	-0.3079223780490684	-0.3079223780490682	-0.03209626832713844	0.0009600811223937118	-0.01752309423236884	-0.01524094018277947	-0.3341183743106109	0.0139936497315604	-5.590127234152172e-05	-0.2989316180494596	0.03277103565090414	0.03253958037043093	0.2848761220203521	-29.21402571477132	-9.912694758205442	2.267792179900102	7.923138101836393	-640.3733268014613	-48.56029415381026	-1.513564969762594	1.550148330885717	0.2446230221412983	1.912831799608158	-6.691766903767578	-0.01737458517516182	-2.310707304194722	-0.0005411060713106167	-5.217573626715803	-5.217573626715797	-0.5082380331761021	0.06030022789386205	-0.7282910063066509	-0.4110778929041271	-4.115752812256492e-08	-2.218284446792797e-08	2.44373059097124e-07	1.517813311935711e-08	-6.210899690885628e-08	3.161618821409183e-07	-6.678823659846387e-08
1.07	-0.5501180809391211	-0.08041258327695923	0.5763428159025	1.829023666893892	-0.4693505397307866	0.017602629341367	-0.2617442816486213	1.378572046203374	1.378572046203375	-0.09385861844000351	-0.174505139274385	0.2198844375770378	-0.01277271173000378	0.09376704793557576	0.02830013735073233	0.1372974048981364	-0.4744653342598654	-0.005477296922375727	-0.1625879977895245	-4.857765819283818e-05	-0.3600234364233967	-0.3600234364233962	-0.0365694131269358	0.001897738975457643	-0.02484076258423958	-0.01898112687462839	-0.3330090165268857	0.01424417360900611	-0.0001740061307142534	-0.2985837243038577	0.03306875491753419	0.03272568956402746	0.2841009123156372	-29.06735146221222	-10.04530833256273	2.318752296174502	7.674726974691574	-639.631116883079	-48.69819314190914	-1.582620423658478	1.530582226304835	0.2488598012126056	1.896072782123577	-6.630930785635395	0.0333858489287365	-2.326752628858128	0.0190993262755257	-5.203784399830559	-5.203784399830583	-0.414892653032641	0.1158291353445945	-0.7374237566316288	-0.3505511763529429	-4.872421706672956e-08	-2.959054813601144e-08	2.865193118297744e-07	1.727242364393709e-08	-7.208341646943415e-08	3.608242148229664e-07	-7.784758216720947e-08
1.08	-0.5491033051584719	-0.08011699419792549	0.5778104190455615	1.823947298441148	-0.4694037426300762	0.01586150134502817	-0.2617444554501912	1.374711738328625	1.374711738328638	-0.09424635253546172	-0.1744805828183563	0.21959878847063	-0.01298040192145194	0.1092006742700495	0.03082841584436528	0.1562006519294184	-0.5407660144436617	-0.005125698461592754	-0.1855960872184269	-1.965193927254503e-06	-0.4120209930792958	-0.412020993079296	-0.0409641559127768	0.003048619681799016	-0.0323151912162841	-0.02252379832758404	-0.3318996587431622	0.01449469748645185	-0.0002921109890870315	-0.29823583055826	0.03336647418416427	0.03291179875762405	0.283325702610922	-28.92665485026013	-10.17655565589688	2.369129571880874	7.450693033386471	-638.9717327869413	-48.81607430242656	-1.664379120509473	1.565168424363118	0.257535760960004	1.885629196031593	-6.641027367848192	0.02749135526690314	-2.261278717600902	-0.01948015183127996	-5.196873283030151	-5.196873283030155	-0.492557630384831	0.102944798549351	-0.759643062341408	-0.3715748451254723	-5.314045617131446e-08	-2.866520902918016e-08	3.306355759502701e-07	2.136295475738008e-08	-7.988390920781878e-08	3.980778276631144e-07	-8.590010266691688e-08
